<?xml version="1.0" encoding="UTF-8" standalone="no"?>
<svg
   xmlns:dc="http://purl.org/dc/elements/1.1/"
   xmlns:cc="http://creativecommons.org/ns#"
   xmlns:rdf="http://www.w3.org/1999/02/22-rdf-syntax-ns#"
   xmlns="http://www.w3.org/2000/svg"
   xmlns:sodipodi="http://sodipodi.sourceforge.net/DTD/sodipodi-0.dtd"
   xmlns:inkscape="http://www.inkscape.org/namespaces/inkscape"
   viewBox="0 0 533.33331 533.33331"
   height="533.33331"
   width="533.33331"
   xml:space="preserve"
   version="1.1"
   id="svg3718"
   sodipodi:docname="neo4j_cypher.svg"
   inkscape:version="0.92.2 (5c3e80d, 2017-08-06)"><sodipodi:namedview
     pagecolor="#ffffff"
     bordercolor="#666666"
     borderopacity="1"
     objecttolerance="10"
     gridtolerance="10"
     guidetolerance="10"
     inkscape:pageopacity="0"
     inkscape:pageshadow="2"
     inkscape:window-width="1920"
     inkscape:window-height="1021"
     id="namedview30"
     showgrid="false"
     inkscape:zoom="1.5168751"
     inkscape:cx="266.66666"
     inkscape:cy="266.66666"
     inkscape:window-x="1920"
     inkscape:window-y="0"
     inkscape:window-maximized="1"
     inkscape:current-layer="svg3718" /><metadata
     id="metadata3724"><rdf:RDF><cc:Work
         rdf:about=""><dc:format>image/svg+xml</dc:format><dc:label
           rdf:resource="http://purl.org/dc/dcmitype/StillImage" /><dc:title /></cc:Work></rdf:RDF></metadata><defs
     id="defs3722" /><g
     id="g3726"
     transform="matrix(1.3333333,0,0,-1.3333333,0,533.33333)"><g
       id="g3728"
       transform="scale(0.1)"><path
         d="m 3255.98,2150.96 c 0,-717.72 -581.83,-1299.55 -1299.55,-1299.55 -717.73,0 -1299.559,581.83 -1299.559,1299.55 0,717.72 581.829,1299.55 1299.559,1299.55 717.72,0 1299.55,-581.83 1299.55,-1299.55"
         style="fill:#208cc7;fill-opacity:1;fill-rule:nonzero;stroke:none"
         id="path3730" /><path
         d="m 1233.6,2576.83 c 0,-57.39 -46.56,-103.96 -103.96,-103.96 -57.43,0 -103.97,46.57 -103.97,103.96 0,57.45 46.54,103.97 103.97,103.97 57.4,0 103.96,-46.52 103.96,-103.97"
         style="fill:#ffffff;fill-opacity:1;fill-rule:nonzero;stroke:none"
         id="path3732" /><path
         d="m 1250.77,2291.94 c 0,-57.39 -46.56,-103.96 -103.96,-103.96 -57.43,0 -103.97,46.57 -103.97,103.96 0,57.45 46.54,103.96 103.97,103.96 57.4,0 103.96,-46.51 103.96,-103.96"
         style="fill:#ffffff;fill-opacity:1;fill-rule:nonzero;stroke:none"
         id="path3734" /><path
         d="m 1314.42,1989.87 c 0,-57.39 -46.56,-103.96 -103.96,-103.96 -57.43,0 -103.97,46.57 -103.97,103.96 0,57.45 46.54,103.97 103.97,103.97 57.4,0 103.96,-46.52 103.96,-103.97"
         style="fill:#ffffff;fill-opacity:1;fill-rule:nonzero;stroke:none"
         id="path3736" /><path
         d="m 1457.04,1719.15 c 0,-57.38 -46.56,-103.96 -103.96,-103.96 -57.43,0 -103.97,46.58 -103.97,103.96 0,57.46 46.54,103.97 103.97,103.97 57.4,0 103.96,-46.51 103.96,-103.97"
         style="fill:#ffffff;fill-opacity:1;fill-rule:nonzero;stroke:none"
         id="path3738" /><path
         d="m 2569.19,1340.59 c 0,-57.38 -46.56,-103.96 -103.97,-103.96 -57.43,0 -103.96,46.58 -103.96,103.96 0,57.46 46.53,103.97 103.96,103.97 57.41,0 103.97,-46.51 103.97,-103.97"
         style="fill:#ffffff;fill-opacity:1;fill-rule:nonzero;stroke:none"
         id="path3740" /><path
         d="m 2757.95,1564.02 c 0,-57.38 -46.56,-103.96 -103.97,-103.96 -57.43,0 -103.96,46.58 -103.96,103.96 0,57.46 46.53,103.97 103.96,103.97 57.41,0 103.97,-46.51 103.97,-103.97"
         style="fill:#ffffff;fill-opacity:1;fill-rule:nonzero;stroke:none"
         id="path3742" /><path
         d="m 2210.13,3143.99 c 0,-57.38 -46.56,-103.96 -103.96,-103.96 -57.43,0 -103.97,46.58 -103.97,103.96 0,57.45 46.54,103.97 103.97,103.97 57.4,0 103.96,-46.52 103.96,-103.97"
         style="fill:#ffffff;fill-opacity:1;fill-rule:nonzero;stroke:none"
         id="path3744" /><path
         d="m 1937.4,3239.81 c 0,-57.39 -46.56,-103.96 -103.96,-103.96 -57.43,0 -103.97,46.57 -103.97,103.96 0,57.45 46.54,103.97 103.97,103.97 57.4,0 103.96,-46.52 103.96,-103.97"
         style="fill:#ffffff;fill-opacity:1;fill-rule:nonzero;stroke:none"
         id="path3746" /><path
         d="m 3366.55,2460.28 c 0,-382.48 -310.06,-692.53 -692.53,-692.53 -382.48,0 -692.53,310.05 -692.53,692.53 0,382.47 310.05,692.52 692.53,692.52 382.47,0 692.53,-310.05 692.53,-692.52"
         style="fill:#59b734;fill-opacity:1;fill-rule:nonzero;stroke:none"
         id="path3748" /><path
         d="m 3366.55,2460.28 c 0,-382.48 -310.06,-692.53 -692.53,-692.53 -382.48,0 -692.53,310.05 -692.53,692.53 0,382.47 310.05,692.52 692.53,692.52 382.47,0 692.53,-310.05 692.53,-692.52 z"
         style="fill:none;stroke:#ffffff;stroke-width:50;stroke-linecap:butt;stroke-linejoin:miter;stroke-miterlimit:10;stroke-dasharray:none;stroke-opacity:1"
         id="path3750" /><path
         d="m 2291.31,1048.58 c 0,-312.932 -253.68,-566.611 -566.61,-566.611 -312.93,0 -566.62,253.679 -566.62,566.611 0,312.93 253.69,566.61 566.62,566.61 312.93,0 566.61,-253.68 566.61,-566.61"
         style="fill:#59b734;fill-opacity:1;fill-rule:nonzero;stroke:none"
         id="path3752" /><path
         d="m 2291.31,1048.58 c 0,-312.932 -253.68,-566.611 -566.61,-566.611 -312.93,0 -566.62,253.679 -566.62,566.611 0,312.93 253.69,566.61 566.62,566.61 312.93,0 566.61,-253.68 566.61,-566.61 z"
         style="fill:none;stroke:#ffffff;stroke-width:50;stroke-linecap:butt;stroke-linejoin:miter;stroke-miterlimit:10;stroke-dasharray:none;stroke-opacity:1"
         id="path3754" /><path
         d="m 1636.53,3156.59 c 0,-208.63 -169.12,-377.75 -377.74,-377.75 -208.63,0 -377.747,169.12 -377.747,377.75 0,208.62 169.117,377.74 377.747,377.74 208.62,0 377.74,-169.12 377.74,-377.74"
         style="fill:#59b734;fill-opacity:1;fill-rule:nonzero;stroke:none"
         id="path3756" /><path
         d="m 1636.53,3156.59 c 0,-208.63 -169.12,-377.75 -377.74,-377.75 -208.63,0 -377.747,169.12 -377.747,377.75 0,208.62 169.117,377.74 377.747,377.74 208.62,0 377.74,-169.12 377.74,-377.74 z"
         style="fill:none;stroke:#ffffff;stroke-width:50;stroke-linecap:butt;stroke-linejoin:miter;stroke-miterlimit:10;stroke-dasharray:none;stroke-opacity:1"
         id="path3758" /></g></g><path
     style="fill:#000000"
     id="path32"
     d="m 256.88947,211.88427 c 0.20116,12.92672 0.0318,25.85494 -0.23922,38.77903 -0.962,24.76832 -1.65809,49.54417 -1.96912,74.32915 -0.10893,11.14987 -0.11838,22.30069 0.0525,33.44987 0.0505,2.67158 0.12011,5.34249 0.11312,8.01468 0.0168,3.45906 0.2809,6.91301 0.41771,10.36947 0.0561,1.99158 0.11462,3.98291 0.23683,5.97166 0,0 -8.69734,4.45898 -8.69734,4.45898 v 0 c 0.0202,-2.01184 -0.002,-4.02378 -0.0833,-6.03431 -0.13881,-3.45074 -0.42117,-6.89334 -0.55115,-10.34187 -0.0202,-2.7109 0.0296,-5.42099 0.10136,-8.13098 0.26201,-11.31086 0.53422,-22.62156 0.86146,-33.93074 0.7095,-24.78738 1.59052,-49.57089 2.05777,-74.36433 -0.009,-12.70063 -0.088,-25.42077 -0.93624,-38.09787 0,0 8.63567,-4.47274 8.63567,-4.47274 z"
     inkscape:connector-curvature="0" /><path
     style="fill:#000000"
     id="path34"
     d="m 326.73515,218.01752 c -0.83347,8.32782 -1.12595,16.69012 -1.37964,25.05177 -0.21743,16.58914 -0.80517,33.16907 -1.2151,49.75407 -0.34193,14.74655 -0.35375,29.49784 -0.38015,44.24749 -0.14869,11.93154 0.0359,23.85831 0.35324,35.78497 0.17389,6.26507 0.37254,12.52942 0.55309,18.79431 0.0122,0.46621 0.0244,0.93242 0.0367,1.39863 0,0 -8.63357,4.40934 -8.63357,4.40934 v 0 c 0.003,-0.47323 0.007,-0.94646 0.01,-1.41969 0.0288,-6.33235 -0.027,-12.66465 -0.13817,-18.99608 -0.20765,-11.96225 -0.29341,-23.92341 -0.20375,-35.88763 0.0866,-14.80159 0.31122,-29.60142 0.63993,-44.39967 0.39333,-16.54267 1.03334,-33.08114 0.97842,-49.63131 0.10164,-8.22399 0.24575,-16.44664 0.6554,-24.66125 0,0 8.72372,-4.44495 8.72372,-4.44495 z"
     inkscape:connector-curvature="0" /><path
     style="fill:#000000"
     id="path36"
     d="m 178.20189,272.03621 c 14.11396,0.32926 28.23332,0.3604 42.35034,0.43898 27.71881,0.33622 55.43864,0.52817 83.15921,0.62471 21.94352,0.0591 43.88702,0.006 65.8303,-0.0958 9.22981,-0.0459 18.45941,-0.12957 27.68854,-0.25014 1.9018,-0.0263 3.80363,-0.0517 5.70558,-0.0639 0,0 -7.91849,5.75341 -7.91849,5.75341 v 0 c -1.84493,-0.0113 -3.68973,-0.035 -5.5345,-0.0603 -9.0007,-0.11601 -18.00183,-0.19706 -27.00313,-0.24872 -21.74516,-0.12301 -43.49042,-0.22165 -65.23561,-0.34024 -27.79559,-0.15396 -55.59082,-0.40508 -83.38686,-0.45484 -14.51986,0.0796 -29.04175,0.11626 -43.55875,0.43898 0,0 7.90337,-5.74214 7.90337,-5.74214 z"
     inkscape:connector-curvature="0" /><path
     style="fill:#000000"
     id="path38"
     d="m 203.79508,326.87061 c 11.23891,0.70812 22.51622,0.70363 33.77334,0.84594 26.91848,0.44542 53.83333,0.0787 80.74822,-0.37243 11.85054,-0.16122 23.69607,-0.38892 35.5406,-0.79122 0,0 -6.83601,4.99534 -6.83601,4.99534 v 0 c -11.71442,0.24299 -23.42904,0.34908 -35.14514,0.4908 -27.05856,0.40253 -54.1158,0.75207 -81.17832,0.66464 -11.62684,0.041 -23.26387,0.1878 -34.88637,-0.1665 0,0 7.98368,-5.66657 7.98368,-5.66657 z"
     inkscape:connector-curvature="0" /></svg>